<svg width="31" height="37" viewBox="0 0 31 37" fill="none" xmlns="http://www.w3.org/2000/svg"><path d="M0 9.82314C1.17404 9.13855 2.34315 8.45396 3.51965 7.7743C7.4208 5.51615 11.3269 3.26538 15.2256 1.00476C15.4348 0.8841 15.5898 0.896412 15.7917 1.01461C20.7733 3.89826 25.7599 6.77943 30.7489 9.65569C30.9385 9.76404 31 9.89455 31 10.1063C30.9951 15.849 30.9951 21.5916 31 27.3318C31 27.5879 30.9286 27.7406 30.6997 27.8736C25.7624 30.7178 20.8275 33.567 15.8975 36.426C15.6169 36.5885 15.4126 36.6033 15.1222 36.4359C10.2119 33.5842 5.29178 30.7474 0.374117 27.9081C0.246129 27.8342 0.123065 27.7529 0 27.6766C0 21.7271 0 15.7776 0 9.82806L0 9.82314ZM3.73132 25.5563C3.89377 25.5563 3.99714 25.5563 4.10052 25.5563C6.92608 25.5563 9.75165 25.5563 12.5748 25.5563C12.8521 25.5563 12.9907 25.6992 12.9907 25.9848C12.9907 26.4182 12.9907 26.8516 12.9907 27.285C12.9907 27.5543 12.8545 27.6889 12.5821 27.6889C9.95347 27.6889 7.32481 27.6889 4.69861 27.6889C4.60754 27.6889 4.51401 27.6988 4.42295 27.7037L4.40818 27.7652C7.73093 29.686 11.0561 31.6044 14.4207 33.5498C14.4281 33.3946 14.4355 33.301 14.4355 33.205C14.4355 28.6936 14.4355 24.1822 14.4404 19.6733C14.4404 19.4468 14.369 19.3236 14.1721 19.2104C10.4088 17.0458 6.65288 14.8738 2.89202 12.7019C2.66558 12.5713 2.43668 12.4433 2.17332 12.2931V23.9384C2.27177 23.7759 2.32838 23.6873 2.38253 23.5962C3.70179 21.3109 5.0235 19.0281 6.33537 16.7404C6.46336 16.5163 6.57658 16.4769 6.79563 16.6173C7.18698 16.8636 7.59309 17.0852 7.99428 17.3167C8.23713 17.4562 8.288 17.6475 8.14688 17.8904C6.7341 20.3382 5.32132 22.7835 3.90854 25.2313C3.85685 25.3224 3.81008 25.4135 3.73132 25.5613V25.5563ZM13.2984 4.67396L13.2442 4.62471C9.91902 6.54549 6.59135 8.46874 3.23168 10.4092C3.35228 10.4856 3.42366 10.5348 3.4975 10.5767C7.4085 12.8373 11.322 15.093 15.2305 17.3585C15.4225 17.4693 15.5603 17.4841 15.7621 17.3684C19.678 15.0979 23.6013 12.8348 27.5197 10.5718C27.5911 10.5299 27.66 10.4782 27.7683 10.4043C24.4037 8.46135 21.0736 6.5381 17.7459 4.61486C17.7779 4.79216 17.8493 4.92021 17.9231 5.0458C19.2227 7.29657 20.5173 9.5498 21.8243 11.7956C21.9646 12.0345 21.9277 12.1527 21.6889 12.2758C21.2803 12.4901 20.8865 12.7339 20.4854 12.9653C20.1432 13.1624 20.1432 13.1624 19.9513 12.8299C18.5434 10.392 17.1355 7.9516 15.7301 5.51369C15.6637 5.40041 15.5948 5.28713 15.5037 5.13199C15.2133 5.63435 14.9524 6.08253 14.6939 6.53318C13.478 8.63866 12.2597 10.7441 11.0537 12.8545C10.9109 13.1033 10.7879 13.1377 10.5491 12.9875C10.143 12.7289 9.72457 12.4876 9.29877 12.2635C9.05756 12.1379 9.06249 12.0099 9.18555 11.7956C10.4507 9.61629 11.7084 7.43201 12.9686 5.25019C13.0793 5.05565 13.1901 4.86357 13.3033 4.66903L13.2984 4.67396ZM27.2761 25.5563C27.1825 25.3864 27.121 25.2682 27.0545 25.1525C25.6418 22.7047 24.2314 20.2569 22.8137 17.8116C22.6857 17.59 22.703 17.4718 22.9319 17.3487C23.3577 17.1221 23.7786 16.8833 24.1847 16.6247C24.4259 16.472 24.544 16.5065 24.6868 16.7577C25.9962 19.0478 27.3204 21.3306 28.6396 23.6159C28.6888 23.702 28.7479 23.7858 28.8291 23.9138V12.298C28.7258 12.3522 28.6568 12.3842 28.5904 12.4236C24.6597 14.6916 20.7315 16.9621 16.8008 19.2276C16.6359 19.3236 16.5694 19.4295 16.5694 19.6241C16.5744 24.1749 16.5744 28.7256 16.5744 33.2764C16.5744 33.3552 16.5891 33.4365 16.6014 33.5424C19.9636 31.5994 23.2863 29.6811 26.6066 27.7603L26.5771 27.6889H26.3186C23.6801 27.6889 21.0416 27.6889 18.4031 27.6889C18.1471 27.6889 18.0183 27.5559 18.0167 27.29C18.0167 26.8467 18.0167 26.4035 18.0167 25.9602C18.0167 25.691 18.1537 25.5563 18.4277 25.5563C21.2434 25.5563 24.0592 25.5563 26.8749 25.5563H27.2785H27.2761Z" fill="#161616"/></svg>
