<svg xmlns="http://www.w3.org/2000/svg" viewBox="0 0 200 200" fill="none" stroke="#161616" stroke-width="2.5" stroke-linecap="round" stroke-linejoin="round">
  <!-- Hand-drawn style building/creation illustration - simplified to match connect.svg style -->
  <!-- Blueprint paper -->
  <path d="M45 155 L45 55 Q45 50 50 50 L140 50 Q150 50 152 60 L155 75 L150 75 Q148 68 145 70 L145 155 Z" fill="none"/>
  <path d="M140 50 L140 70 Q145 68 155 75" fill="none" stroke-width="1.5"/>
  
  <!-- Grid lines on blueprint -->
  <path d="M55 70 L135 70" stroke-width="1" opacity="0.4"/>
  <path d="M55 90 L135 90" stroke-width="1" opacity="0.4"/>
  <path d="M55 110 L135 110" stroke-width="1" opacity="0.4"/>
  <path d="M55 130 L135 130" stroke-width="1" opacity="0.4"/>
  <path d="M75 60 L75 145" stroke-width="1" opacity="0.4"/>
  <path d="M95 60 L95 145" stroke-width="1" opacity="0.4"/>
  <path d="M115 60 L115 145" stroke-width="1" opacity="0.4"/>
  
  <!-- Emerging 3D cube shape -->
  <path d="M75 120 L75 85 L95 75 L115 85 L115 120 L95 130 Z" fill="none" stroke-width="2"/>
  <path d="M75 85 L95 95 L115 85" fill="none" stroke-width="2"/>
  <path d="M95 95 L95 130" stroke-width="2"/>
  
  <!-- Rising motion indicators -->
  <path d="M90 50 L90 42" stroke-width="1.5"/>
  <path d="M100 45 L100 35" stroke-width="1.5"/>
  <path d="M110 50 L110 42" stroke-width="1.5"/>
  
  <!-- Top sparkle -->
  <circle cx="100" cy="30" r="3" fill="#161616" stroke="none"/>
</svg>
