<svg xmlns="http://www.w3.org/2000/svg" viewBox="0 0 200 200" fill="none" stroke="#161616" stroke-width="2.5" stroke-linecap="round" stroke-linejoin="round">
  <!-- Hand-drawn style hands arranging/curating illustration -->
  <!-- Left hand outline -->
  <path d="M30 120 Q25 100 35 85 Q45 70 55 75 L60 90 Q55 95 58 105 L55 120 Q50 130 40 130 Q30 130 30 120" fill="none"/>
  <!-- Left hand fingers -->
  <path d="M55 75 Q60 65 65 70 L63 85" fill="none"/>
  <path d="M63 85 Q70 75 75 82 L70 95" fill="none"/>
  
  <!-- Right hand outline -->
  <path d="M170 120 Q175 100 165 85 Q155 70 145 75 L140 90 Q145 95 142 105 L145 120 Q150 130 160 130 Q170 130 170 120" fill="none"/>
  <!-- Right hand fingers -->
  <path d="M145 75 Q140 65 135 70 L137 85" fill="none"/>
  <path d="M137 85 Q130 75 125 82 L130 95" fill="none"/>
  
  <!-- Objects being arranged -->
  <rect x="85" y="60" width="30" height="25" rx="4" fill="none" transform="rotate(-5 100 72)"/>
  <rect x="85" y="95" width="30" height="25" rx="4" fill="none"/>
  <rect x="85" y="130" width="30" height="25" rx="4" fill="none" transform="rotate(5 100 142)"/>
  
  <!-- Selection indicator lines -->
  <path d="M78 72 L82 72" stroke-width="2"/>
  <path d="M78 107 L82 107" stroke-width="2"/>
  <path d="M78 142 L82 142" stroke-width="2"/>
</svg>
