<svg xmlns="http://www.w3.org/2000/svg" viewBox="0 0 200 200" fill="none" stroke="#161616" stroke-width="2.5" stroke-linecap="round" stroke-linejoin="round">
  <!-- Hand-drawn style transformation illustration - simplified to match connect.svg style -->
  <!-- Old structure (left) -->
  <path d="M45 140 L45 90 L65 75 L85 90 L85 140" fill="none"/>
  <rect x="52" y="100" width="10" height="12" fill="none" stroke-width="1.5"/>
  <rect x="68" y="100" width="10" height="12" fill="none" stroke-width="1.5"/>
  <rect x="52" y="120" width="10" height="12" fill="none" stroke-width="1.5"/>
  <rect x="68" y="120" width="10" height="12" fill="none" stroke-width="1.5"/>
  
  <!-- Connection arrow/bridge -->
  <path d="M95 105 Q105 100 115 105" fill="none" stroke-width="2"/>
  <path d="M95 115 Q105 110 115 115" fill="none" stroke-width="2"/>
  <!-- Energy dots -->
  <circle cx="105" cy="107" r="3" fill="#161616" stroke="none"/>
  
  <!-- New structure (right) - cleaner -->
  <path d="M125 140 L125 85 L165 85 L165 140" fill="none"/>
  <path d="M125 85 L145 70 L165 85" fill="none"/>
  <rect x="132" y="95" width="12" height="15" fill="none"/>
  <rect x="150" y="95" width="12" height="15" fill="none"/>
  <rect x="132" y="118" width="30" height="15" fill="none"/>
  
  <!-- Sparkle indicator -->
  <circle cx="172" cy="72" r="4" fill="#161616" stroke="none"/>
</svg>
